<!-- <svg width="20" height="20" viewBox="0 0 20 20" xmlns="http://www.w3.org/2000/svg"><path d="M3.15 13.628A7.749 7.749 0 0 0 10 17.75a7.74 7.74 0 0 0 6.305-3.242l-2.387-2.127-2.765 2.244-4.389-4.496-3.614 3.5zm-.787-2.303l4.446-4.371 4.52 4.63 2.534-2.057 3.533 2.797c.23-.734.354-1.514.354-2.324a7.75 7.75 0 1 0-15.387 1.325zM10 20C4.477 20 0 15.523 0 10S4.477 0 10 0s10 4.477 10 10-4.477 10-10 10z"/></svg> -->
<!-- <svg width="auto" height="22px" viewBox="0 -71 511.99912 511" xmlns="http://www.w3.org/2000/svg"><path d="m255.980469 370.492188c-.042969 0-.089844 0-.136719 0-15.449219-.105469-152.027344-1.351563-190.722656-11.816407-27.042969-7.269531-48.390625-28.59375-55.679688-55.640625-10.125-38.011718-9.4804685-111.195312-9.410156-117.039062-.0664062-5.816406-.71875-79.605469 9.378906-117.929688.011719-.035156.019532-.074218.03125-.109375 7.207032-26.738281 29.035156-48.722656 55.613282-56.011719.066406-.019531.136718-.035156.203124-.054687 38.257813-10.054687 175.105469-11.285156 190.585938-11.390625h.277344c15.488281.105469 152.429687 1.351562 190.769531 11.832031 26.972656 7.25 48.304687 28.546875 55.613281 55.558594 10.503906 38.351563 9.53125 112.300781 9.425782 118.542969.074218 6.148437.6875 78.675781-9.378907 116.878906-.007812.039062-.019531.074219-.027343.109375-7.292969 27.046875-28.636719 48.371094-55.710938 55.648437-.035156.011719-.074219.019532-.109375.03125-38.253906 10.050782-175.105469 11.28125-190.582031 11.390626-.046875 0-.09375 0-.140625 0zm-207.90625-292.167969c-8.890625 33.828125-8.050781 106.675781-8.042969 107.410156v.527344c-.265625 20.203125.667969 78.710937 8.046875 106.421875 3.578125 13.269531 14.105469 23.78125 27.457031 27.371094 28.550782 7.722656 139.789063 10.152343 180.445313 10.4375 40.761719-.285157 152.164062-2.648438 180.503906-10.0625 13.308594-3.601563 23.800781-14.078126 27.402344-27.363282 7.386719-28.117187 8.3125-86.339844 8.042969-106.414062 0-.210938 0-.421875.003906-.632813.367187-20.445312-.355469-79.636719-8.011719-107.570312-.007813-.027344-.015625-.054688-.019531-.082031-3.59375-13.328126-14.125-23.839844-27.476563-27.429688-28.273437-7.730469-139.691406-10.152344-180.445312-10.4375-40.734375.285156-152.027344 2.644531-180.453125 10.050781-13.097656 3.632813-23.863282 14.519531-27.453125 27.773438zm435.136719 219.894531h.011718zm-278.210938-31.726562v-161.996094l140 81zm0 0"/></svg> -->
<svg version="1.1" id="Capa_1" xmlns="http://www.w3.org/2000/svg" xmlns:xlink="http://www.w3.org/1999/xlink" x="0px" y="0px" viewBox="0 0 477.867 477.867" style="enable-background:new 0 0 477.867 477.867;" xml:space="preserve"><g><g><path d="M238.933,0C106.974,0,0,106.974,0,238.933s106.974,238.933,238.933,238.933s238.933-106.974,238.933-238.933 C477.726,107.033,370.834,0.141,238.933,0z M238.933,443.733c-113.108,0-204.8-91.692-204.8-204.8s91.692-204.8,204.8-204.8 s204.8,91.692,204.8,204.8C443.611,351.991,351.991,443.611,238.933,443.733z"/></g></g><g><g><path d="M339.557,231.32c-1.654-3.318-4.343-6.008-7.662-7.662l-136.533-68.267c-8.432-4.213-18.682-0.794-22.896,7.638 c-1.185,2.371-1.801,4.986-1.8,7.637V307.2c-0.004,9.426,7.633,17.07,17.059,17.075c2.651,0.001,5.266-0.615,7.637-1.8 l136.533-68.267C340.331,250.004,343.762,239.756,339.557,231.32z M204.8,279.586v-81.306l81.306,40.653L204.8,279.586z"/></g></g></svg>