<!-- <svg width="auto" height="22px" viewBox="0 -71 511.99912 511" xmlns="http://www.w3.org/2000/svg"><path d="m255.980469 370.492188c-.042969 0-.089844 0-.136719 0-15.449219-.105469-152.027344-1.351563-190.722656-11.816407-27.042969-7.269531-48.390625-28.59375-55.679688-55.640625-10.125-38.011718-9.4804685-111.195312-9.410156-117.039062-.0664062-5.816406-.71875-79.605469 9.378906-117.929688.011719-.035156.019532-.074218.03125-.109375 7.207032-26.738281 29.035156-48.722656 55.613282-56.011719.066406-.019531.136718-.035156.203124-.054687 38.257813-10.054687 175.105469-11.285156 190.585938-11.390625h.277344c15.488281.105469 152.429687 1.351562 190.769531 11.832031 26.972656 7.25 48.304687 28.546875 55.613281 55.558594 10.503906 38.351563 9.53125 112.300781 9.425782 118.542969.074218 6.148437.6875 78.675781-9.378907 116.878906-.007812.039062-.019531.074219-.027343.109375-7.292969 27.046875-28.636719 48.371094-55.710938 55.648437-.035156.011719-.074219.019532-.109375.03125-38.253906 10.050782-175.105469 11.28125-190.582031 11.390626-.046875 0-.09375 0-.140625 0zm-207.90625-292.167969c-8.890625 33.828125-8.050781 106.675781-8.042969 107.410156v.527344c-.265625 20.203125.667969 78.710937 8.046875 106.421875 3.578125 13.269531 14.105469 23.78125 27.457031 27.371094 28.550782 7.722656 139.789063 10.152343 180.445313 10.4375 40.761719-.285157 152.164062-2.648438 180.503906-10.0625 13.308594-3.601563 23.800781-14.078126 27.402344-27.363282 7.386719-28.117187 8.3125-86.339844 8.042969-106.414062 0-.210938 0-.421875.003906-.632813.367187-20.445312-.355469-79.636719-8.011719-107.570312-.007813-.027344-.015625-.054688-.019531-.082031-3.59375-13.328126-14.125-23.839844-27.476563-27.429688-28.273437-7.730469-139.691406-10.152344-180.445312-10.4375-40.734375.285156-152.027344 2.644531-180.453125 10.050781-13.097656 3.632813-23.863282 14.519531-27.453125 27.773438zm435.136719 219.894531h.011718zm-278.210938-31.726562v-161.996094l140 81zm0 0"/></svg> -->
<svg width="28" height="22" xmlns="http://www.w3.org/2000/svg">
 <g>
  <rect fill="none" id="canvas_background" height="24" width="30" y="-1" x="-1"/>
 </g>
 <g>
  <path id="svg_1" d="m27.730166,4.900013a5,5 0 0 0 -4.63,-4.54a115.19,115.19 0 0 0 -18.2,0a5,5 0 0 0 -4.63,4.54a69,69 0 0 0 0,12.2a5,5 0 0 0 4.63,4.54c3,0.24 6.06,0.36 9.1,0.36s6.08,-0.12 9.1,-0.36a5,5 0 0 0 4.63,-4.54a69,69 0 0 0 0,-12.2zm-2,12a3,3 0 0 1 -2.73,2.75a113.8,113.8 0 0 1 -17.9,0a3,3 0 0 1 -2.78,-2.72a65.26,65.26 0 0 1 0,-11.86a3,3 0 0 1 2.73,-2.72c2.95,-0.23 5.95,-0.35 8.95,-0.35s6,0.12 9,0.35a3,3 0 0 1 2.78,2.72a65.26,65.26 0 0 1 -0.05,11.86l0,-0.03z"/>
  <path id="svg_2" d="m18.700504,10.108484l-8,-4a1,1 0 0 0 -1.45,0.89l0,8a1,1 0 0 0 0.47,0.85a1,1 0 0 0 0.53,0.15a1,1 0 0 0 0.45,-0.11l8,-4a1,1 0 0 0 0,-1.78zm-7.45,3.27l0,-4.76l4.76,2.38l-4.76,2.38z"/>
 </g>
</svg>